<svg width="30" height="30" viewBox="0 0 30 30" fill="none" xmlns="http://www.w3.org/2000/svg">
<path d="M2.08333 1.04167C2.08333 0.765399 1.97359 0.500448 1.77824 0.305097C1.58289 0.109747 1.31793 0 1.04167 0C0.765399 0 0.500448 0.109747 0.305097 0.305097C0.109747 0.500448 0 0.765399 0 1.04167V24.7917C0 26.173 0.548734 27.4978 1.52549 28.4745C2.50224 29.4513 3.827 30 5.20833 30H28.9583C29.2346 30 29.4996 29.8903 29.6949 29.6949C29.8903 29.4996 30 29.2346 30 28.9583C30 28.6821 29.8903 28.4171 29.6949 28.2218C29.4996 28.0264 29.2346 27.9167 28.9583 27.9167H5.20833C4.37953 27.9167 3.58468 27.5874 2.99862 27.0014C2.41257 26.4153 2.08333 25.6205 2.08333 24.7917V1.04167ZM18.3333 6.04167C18.3333 5.46667 18.8 5 19.375 5H27.7083C28.2833 5 28.75 5.46667 28.75 6.04167V14.375C28.75 14.5118 28.7231 14.6472 28.6707 14.7736C28.6184 14.9 28.5416 15.0148 28.4449 15.1116C28.3482 15.2083 28.2333 15.285 28.107 15.3374C27.9806 15.3897 27.8451 15.4167 27.7083 15.4167C27.5715 15.4167 27.4361 15.3897 27.3097 15.3374C27.1833 15.285 27.0685 15.2083 26.9718 15.1116C26.875 15.0148 26.7983 14.9 26.746 14.7736C26.6936 14.6472 26.6667 14.5118 26.6667 14.375V8.55667L18.2367 16.9867C18.0473 17.1759 17.7923 17.2849 17.5246 17.2911C17.2569 17.2973 16.9971 17.2002 16.7992 17.02L12.9508 13.5225L6.77833 19.695C6.58296 19.8904 6.31797 20.0001 6.04167 20.0001C5.76536 20.0001 5.50038 19.8904 5.305 19.695C5.10962 19.4996 4.99986 19.2346 4.99986 18.9583C4.99986 18.682 5.10962 18.417 5.305 18.2217L12.18 11.3467C12.3694 11.1574 12.6244 11.0484 12.8921 11.0422C13.1597 11.036 13.4195 11.1331 13.6175 11.3133L17.4658 14.8108L25.1933 7.08333H19.375C18.8 7.08333 18.3333 6.61667 18.3333 6.04167Z" fill="white"/>
</svg>
