<svg width="24" height="25" viewBox="0 0 24 25" fill="none" xmlns="http://www.w3.org/2000/svg">
<path d="M17.1338 24.0295C16.8154 24.0295 16.5101 23.903 16.285 23.6779C16.0599 23.4528 15.9334 23.1475 15.9334 22.8291V19.7081C15.9707 19.3491 15.9323 18.9863 15.8206 18.6431C15.709 18.2998 15.5266 17.9838 15.2852 17.7155C15.1357 17.5534 15.0338 17.3533 14.9906 17.1371C14.9474 16.9209 14.9645 16.697 15.0402 16.49C15.1158 16.2829 15.247 16.1006 15.4194 15.9632C15.5918 15.8258 15.7987 15.7385 16.0174 15.7109C18.9463 15.3627 21.6472 14.4264 21.6472 9.34883C21.6481 8.40062 21.3683 7.47336 20.843 6.68398C20.3582 5.9573 20.1812 5.0681 20.3508 4.21119C20.459 3.65219 20.459 3.07764 20.3508 2.51865C19.452 2.82256 18.6056 3.26393 17.842 3.82706C17.6976 3.92959 17.5323 3.99891 17.358 4.03004C17.1837 4.06117 17.0046 4.05334 16.8337 4.00712C14.6674 3.395 12.3738 3.395 10.2076 4.00712C10.0366 4.05334 9.85755 4.06117 9.68322 4.03004C9.5089 3.99891 9.34362 3.92959 9.19923 3.82706C8.43091 3.25741 7.57563 2.81558 6.66642 2.51865C6.55227 3.07705 6.55227 3.65278 6.66642 4.21119C6.82378 5.07889 6.63877 5.9738 6.15026 6.70798C5.62721 7.50291 5.34768 8.43327 5.346 9.38484C5.346 14.0543 7.60272 15.3027 10.9878 15.7349C11.2093 15.7624 11.4188 15.8511 11.5926 15.991C11.7665 16.131 11.8979 16.3166 11.9721 16.5271C12.0419 16.7314 12.0553 16.9507 12.011 17.1619C11.9666 17.3732 11.8661 17.5686 11.72 17.7275C11.4866 17.9771 11.3074 18.2723 11.1937 18.5946C11.0801 18.9169 11.0345 19.2593 11.0598 19.6001V22.8291C11.0598 23.1475 10.9334 23.4528 10.7082 23.6779C10.4831 23.903 10.1778 24.0295 9.85944 24.0295C9.54108 24.0295 9.23576 23.903 9.01064 23.6779C8.78553 23.4528 8.65906 23.1475 8.65906 22.8291V22.1449C7.47952 22.2806 6.28474 22.1225 5.18105 21.6848C4.07736 21.2471 3.099 20.5433 2.33304 19.6361C1.93932 19.1997 1.46694 18.8414 0.940596 18.5798C0.787688 18.5404 0.64404 18.4712 0.517853 18.3763C0.391666 18.2814 0.285412 18.1625 0.205156 18.0265C0.124901 17.8906 0.0722161 17.7401 0.0501103 17.5837C0.0280044 17.4274 0.0369105 17.2682 0.0763196 17.1153C0.115729 16.9624 0.184869 16.8188 0.279794 16.6926C0.374718 16.5664 0.493568 16.4601 0.629556 16.3799C0.765544 16.2996 0.916009 16.2469 1.07236 16.2248C1.22871 16.2027 1.38788 16.2116 1.54079 16.251C2.46418 16.5874 3.28927 17.1485 3.94155 17.8836C5.14194 19.0839 6.34232 20.1403 8.62305 19.7081C8.58295 19.0636 8.67696 18.4178 8.89914 17.8115C6.42635 17.1873 2.89722 15.4108 2.89722 9.40885C2.89406 7.98715 3.31172 6.59632 4.0976 5.41157C4.24357 5.19287 4.29948 4.92625 4.25365 4.66733C4.01109 3.37161 4.14867 2.03337 4.64978 0.814102C4.71787 0.651528 4.82092 0.505942 4.95163 0.387689C5.08233 0.269436 5.23747 0.181416 5.40602 0.129884C5.81415 0.00984541 7.27862 -0.230231 10.0515 1.57034C12.2962 1.03018 14.637 1.03018 16.8817 1.57034C19.6546 -0.230231 21.119 -0.00215842 21.5152 0.129884C21.6837 0.181416 21.8389 0.269436 21.9696 0.387689C22.1003 0.505942 22.2033 0.651528 22.2714 0.814102C22.7735 2.03733 22.9111 3.37969 22.6675 4.67934C22.643 4.79644 22.642 4.91726 22.6647 5.03474C22.6873 5.15222 22.7332 5.264 22.7996 5.36355C23.5877 6.5517 24.0055 7.94705 24 9.37284C24 15.4588 20.4948 17.2233 17.998 17.7755C18.218 18.4196 18.3078 19.101 18.2621 19.7802V22.8291C18.2627 23.1354 18.1461 23.4303 17.9364 23.6535C17.7266 23.8766 17.4395 24.0111 17.1338 24.0295Z" fill="white"/>
</svg>
